<?xml version="1.0" encoding="utf-8"?>
<!-- Generator: Adobe Illustrator 18.1.1, SVG Export Plug-In . SVG Version: 6.00 Build 0)  -->
<svg version="1.1" id="Layer_1" xmlns="http://www.w3.org/2000/svg" xmlns:xlink="http://www.w3.org/1999/xlink" height="90%" width="40%"
	 viewBox="0 0 28.8 64.8" enable-background="new 0 0 28.8 64.8" xml:space="preserve">
<rect fill="none" stroke="#000000" stroke-miterlimit="10" width="28.8" height="64.8"/>
<text transform="matrix(0 1 -1 0 2.583 3.5001)" font-family="'DroidSans'" font-size="3">VIN</text>
<text transform="matrix(0 1 -1 0 23.9561 2.5297)" font-family="'DroidSans'" font-size="3">VOUT</text>
<rect x="-5.8" y="2.2" width="5.4" height="0.7"/>
<text transform="matrix(0 1 -1 0 23.9561 46.0873)" font-family="'DroidSans'" font-size="3">OFF</text>
<rect x="-5.8" y="8.9" width="5.4" height="0.7"/>
<rect x="29.3" y="2.2" width="5.4" height="0.7"/>
<rect x="29.3" y="8.9" width="5.4" height="0.7"/>
<rect x="29.3" y="48.4" width="5.4" height="0.7"/>
<rect x="29.3" y="55.3" width="5.4" height="0.7"/>
<rect x="29.3" y="62.1" width="5.4" height="0.7"/>
<rect x="-5.8" y="55.2" width="5.4" height="0.7"/>
<rect x="-5.8" y="62.1" width="5.4" height="0.7"/>
<text transform="matrix(0 1 -1 0 23.9561 56.4443)" font-family="'DroidSans'" font-size="3">GND</text>
<text transform="matrix(0 1 -1 0 2.623 55.801)" font-family="'DroidSans'" font-size="3">GND</text>
</svg>
