<?xml version="1.0" encoding="utf-8"?>
<!-- Generator: Adobe Illustrator 18.1.1, SVG Export Plug-In . SVG Version: 6.00 Build 0)  -->
<svg version="1.1" id="Layer_1" xmlns="http://www.w3.org/2000/svg" xmlns:xlink="http://www.w3.org/1999/xlink" height="90%" width="40%"
	 viewBox="0 0 28.8 64.8" enable-background="new 0 0 28.8 64.8" xml:space="preserve">
<g id="breadboard">
	<path fill="#16AA4B" d="M28.8,64.8H0V0h28.8V64.8z M26,47.6c-0.6,0-1,0.4-1,1c0,0.6,0.4,1,1,1c0.6,0,1-0.4,1-1
		C27,48,26.5,47.6,26,47.6z M26,54.3c-0.6,0-1,0.4-1,1c0,0.6,0.4,1,1,1c0.6,0,1-0.4,1-1C27,54.7,26.5,54.3,26,54.3z M26,61
		c-0.6,0-1,0.4-1,1c0,0.6,0.4,1,1,1c0.6,0,1-0.4,1-1C27,61.4,26.5,61,26,61z M24.8,9.7c0,0.6,0.4,1,1,1c0.6,0,1-0.4,1-1
		c0-0.6-0.4-1-1-1C25.2,8.7,24.8,9.1,24.8,9.7z M24.8,2.9c0,0.6,0.4,1,1,1c0.6,0,1-0.4,1-1c0-0.6-0.4-1-1-1
		C25.2,1.9,24.8,2.3,24.8,2.9z M1.9,62c0,0.6,0.4,1,1,1c0.6,0,1-0.4,1-1c0-0.6-0.4-1-1-1C2.4,61,1.9,61.4,1.9,62z M1.9,55.1
		c0,0.6,0.4,1,1,1c0.6,0,1-0.4,1-1c0-0.6-0.4-1-1-1C2.4,54.1,1.9,54.6,1.9,55.1z M1.9,9.7c0,0.6,0.4,1,1,1c0.6,0,1-0.4,1-1
		c0-0.6-0.4-1-1-1C2.4,8.7,1.9,9.1,1.9,9.7z M1.9,2.9c0,0.6,0.4,1,1,1c0.6,0,1-0.4,1-1c0-0.6-0.4-1-1-1C2.4,1.9,1.9,2.3,1.9,2.9z"/>
	<g id="chip">
		<rect x="7" y="16.2" width="14.8" height="10.5"/>
		<rect x="7.3" y="14" fill="#8C8C8C" width="2.3" height="2.2"/>
		<rect x="11.3" y="14" fill="#8C8C8C" width="2.3" height="2.2"/>
		<rect x="15.5" y="14" fill="#8C8C8C" width="2.3" height="2.2"/>
		<rect x="19.3" y="14" fill="#8C8C8C" width="2.3" height="2.2"/>
		<rect x="7.3" y="26.7" fill="#8C8C8C" width="2.3" height="2.2"/>
		<rect x="11.3" y="26.7" fill="#8C8C8C" width="2.3" height="2.2"/>
		<rect x="15.5" y="26.7" fill="#8C8C8C" width="2.3" height="2.2"/>
		<rect x="19.3" y="26.7" fill="#8C8C8C" width="2.3" height="2.2"/>
	</g>
	<g id="button">
		<rect x="12.4" y="46.4" fill="#8C8C8C" width="7.9" height="15.5"/>
		<rect x="14.8" y="50.6" width="3.2" height="7.2"/>
	</g>
	<g id="labels">
		<text transform="matrix(0 1 -1 0 21.042 56.2139)" font-family="'DroidSans'" font-size="3">GND</text>
		<text transform="matrix(0 1 -1 0 5.7334 3.8867)" font-family="'DroidSans'" font-size="3">VIN</text>
		<text transform="matrix(0 1 -1 0 21.042 2.865)" font-family="'DroidSans'" font-size="3">VOUT</text>
		<text transform="matrix(0 1 -1 0 5.7334 55.2602)" font-family="'DroidSans'" font-size="3">GND</text>
		<text transform="matrix(0 1 -1 0 21.042 46.4167)" font-family="'DroidSans'" font-size="3">OFF</text>
	</g>
	<g id="copper4">
		<circle id="connector8pad" fill="none" stroke="#FEBF10" stroke-width="1.152" cx="26" cy="62" r="1.6"/>
		<circle id="connector7pad" fill="none" stroke="#FEBF10" stroke-width="1.152" cx="26" cy="55.3" r="1.6"/>
		<circle id="connector6pad_29_" fill="none" stroke="#FEBF10" stroke-width="1.152" cx="26" cy="48.6" r="1.6"/>
	</g>
	<g id="copper3">
		<circle id="connector5pad" fill="none" stroke="#FEBF10" stroke-width="1.152" cx="25.8" cy="9.7" r="1.6"/>
		<circle id="connector4pad" fill="none" stroke="#FEBF10" stroke-width="1.152" cx="25.8" cy="2.9" r="1.6"/>
	</g>
	<g id="copper2">
		<circle id="connector3pad_1_" fill="none" stroke="#FEBF10" stroke-width="1.152" cx="2.9" cy="62" r="1.6"/>
		<circle id="connector3pad" fill="none" stroke="#FEBF10" stroke-width="1.152" cx="2.9" cy="55.1" r="1.6"/>
	</g>
	<g id="copper1">
		<circle id="connector2pad" fill="none" stroke="#FEBF10" stroke-width="1.152" cx="2.9" cy="9.7" r="1.6"/>
		<circle id="connector1pad" fill="none" stroke="#FEBF10" stroke-width="1.152" cx="2.9" cy="2.9" r="1.6"/>
	</g>
</g>
</svg>
