<?xml version="1.0" encoding="utf-8"?>
<!-- Generator: Adobe Illustrator 19.2.1, SVG Export Plug-In . SVG Version: 6.00 Build 0)  -->
<svg version="1.1" id="Layer_1" xmlns="http://www.w3.org/2000/svg" xmlns:xlink="http://www.w3.org/1999/xlink" width="170.078740157px" height="207.874015748px"
	 viewBox="0 0 125.469 155.91" enable-background="new 0 0 125.469 155.91" xml:space="preserve">
<g id="breadboard">
	<path d="M125.469,21.991v17.75c0,2.406-1.969,4.375-4.375,4.375h0c-2.406,0-4.375-1.969-4.375-4.375v-17.75
		c0-2.406,1.969-4.375,4.375-4.375h0C123.5,17.616,125.469,19.585,125.469,21.991z M121.093,36.562c-0.552,0-1,0.448-1,1
		s0.448,1,1,1c0.552,0,1-0.448,1-1S121.645,36.562,121.093,36.562z M121.094,29.888c-0.552,0-1,0.448-1,1s0.448,1,1,1
		c0.552,0,1-0.448,1-1S121.646,29.888,121.094,29.888z M121.093,23.185c-0.552,0-1,0.448-1,1s0.448,1,1,1c0.552,0,1-0.448,1-1
		S121.645,23.185,121.093,23.185z"/>
	<g id="silkscreen">
		<rect fill="#FFFFFF" width="96.38" height="155.91"/>
		<circle fill="#E92A2A" stroke="#000000" stroke-miterlimit="10" cx="48.19" cy="35.5" r="5.5"/>
		<circle fill="none" stroke="#000000" stroke-miterlimit="10" cx="48.19" cy="104.114" r="32.75"/>
		<rect y="126.5" fill="#FFFFFF" stroke="#000000" stroke-miterlimit="10" width="6" height="11.333"/>
		<rect y="105.904" fill="#FFFFFF" stroke="#000000" stroke-miterlimit="10" width="6" height="11.333"/>
		<rect y="85.308" fill="#FFFFFF" stroke="#000000" stroke-miterlimit="10" width="6" height="11.333"/>
		<rect y="64.712" fill="#FFFFFF" stroke="#000000" stroke-miterlimit="10" width="6" height="11.333"/>
		<rect y="44.116" fill="#FFFFFF" stroke="#000000" stroke-miterlimit="10" width="6" height="11.333"/>
		<rect y="23.52" fill="#FFFFFF" stroke="#000000" stroke-miterlimit="10" width="6" height="11.333"/>
		<rect x="90.38" y="126.5" fill="#FFFFFF" stroke="#000000" stroke-miterlimit="10" width="6" height="11.333"/>
		<rect x="90.38" y="105.904" fill="#FFFFFF" stroke="#000000" stroke-miterlimit="10" width="6" height="11.333"/>
		<rect x="90.38" y="85.308" fill="#FFFFFF" stroke="#000000" stroke-miterlimit="10" width="6" height="11.333"/>
		<rect x="90.38" y="64.712" fill="#FFFFFF" stroke="#000000" stroke-miterlimit="10" width="6" height="11.333"/>
		<rect x="90.38" y="44.116" fill="#FFFFFF" stroke="#000000" stroke-miterlimit="10" width="6" height="11.333"/>
		<rect x="90.38" y="23.52" fill="#FFFFFF" stroke="#000000" stroke-miterlimit="10" width="6" height="11.333"/>
		<rect x="15.44" y="0" fill="#FFFFFF" stroke="#000000" stroke-miterlimit="10" width="11.333" height="6"/>
		<rect x="69.607" y="0" fill="#FFFFFF" stroke="#000000" stroke-miterlimit="10" width="11.333" height="6"/>
		<rect x="41.773" y="0" fill="#FFFFFF" stroke="#000000" stroke-miterlimit="10" width="11.333" height="6"/>
		<rect x="14.023" y="149.91" fill="#FFFFFF" stroke="#000000" stroke-miterlimit="10" width="11.333" height="6"/>
		<rect x="68.19" y="149.91" fill="#FFFFFF" stroke="#000000" stroke-miterlimit="10" width="11.333" height="6"/>
		<rect x="40.357" y="149.91" fill="#FFFFFF" stroke="#000000" stroke-miterlimit="10" width="11.333" height="6"/>
		<rect x="-0.468" width="1.968" height="155.91"/>
		<rect x="95.023" width="1.968" height="155.91"/>
		
			<rect x="47.277" y="-45.777" transform="matrix(2.679818e-11 -1 1 2.679818e-11 47.2775 49.2459)" width="1.968" height="93.523"/>
		
			<rect x="47.206" y="108.164" transform="matrix(2.587447e-11 -1 1 2.587447e-11 -106.7355 203.1161)" width="1.968" height="93.523"/>
	</g>
	<g id="switch">
		<rect x="113.125" y="23.52" fill="#E72A2A" width="3.594" height="1.667"/>
		<rect x="102.458" y="18.45" fill="#8E8E8E" stroke="#000000" stroke-miterlimit="10" width="10.667" height="31.333"/>
		<rect x="104.779" y="22.658" fill="#515251" width="6.024" height="22.375"/>
		<rect x="105.816" y="25.283" stroke="#000000" stroke-miterlimit="10" width="3.952" height="7.25"/>
		<g>
			<path d="M107.57,20.685c0,0.22-0.026,0.42-0.079,0.602s-0.131,0.336-0.235,0.465s-0.233,0.229-0.388,0.299
				s-0.332,0.105-0.534,0.105c-0.212,0-0.396-0.035-0.552-0.105s-0.284-0.17-0.387-0.299s-0.178-0.284-0.228-0.466
				s-0.074-0.383-0.074-0.604s0.024-0.422,0.074-0.603s0.126-0.334,0.229-0.462s0.232-0.226,0.389-0.296s0.341-0.104,0.553-0.104
				c0.202,0,0.379,0.035,0.532,0.104s0.281,0.168,0.386,0.297s0.183,0.283,0.235,0.463S107.57,20.462,107.57,20.685z
				 M105.479,20.685c0,0.178,0.017,0.339,0.051,0.481s0.086,0.264,0.155,0.363s0.158,0.176,0.266,0.229s0.235,0.079,0.384,0.079
				s0.276-0.026,0.384-0.079s0.196-0.129,0.266-0.229s0.121-0.221,0.153-0.363s0.049-0.303,0.049-0.481
				c0-0.18-0.017-0.34-0.049-0.482s-0.083-0.262-0.152-0.36s-0.157-0.174-0.264-0.227s-0.234-0.079-0.383-0.079
				s-0.276,0.026-0.385,0.079s-0.197,0.128-0.268,0.227s-0.122,0.218-0.156,0.36S105.479,20.505,105.479,20.685z"/>
			<path d="M110.346,22.116h-0.42l-1.404-2.363h-0.016c0.008,0.1,0.015,0.2,0.02,0.299c0.005,0.084,0.01,0.173,0.013,0.266
				s0.005,0.176,0.005,0.25v1.549h-0.336v-2.855h0.416l1.398,2.352h0.014c-0.004-0.099-0.009-0.197-0.014-0.293
				c-0.001-0.042-0.003-0.084-0.005-0.128s-0.004-0.087-0.006-0.131s-0.003-0.085-0.004-0.126s-0.001-0.078-0.001-0.111v-1.562h0.34
				V22.116z"/>
		</g>
		<g>
			<path d="M107.062,47.101c0,0.22-0.026,0.42-0.079,0.602s-0.131,0.336-0.235,0.465s-0.233,0.229-0.388,0.299
				s-0.332,0.105-0.534,0.105c-0.212,0-0.396-0.035-0.552-0.105s-0.284-0.17-0.387-0.299s-0.178-0.284-0.228-0.466
				s-0.074-0.383-0.074-0.604s0.024-0.422,0.074-0.603s0.126-0.334,0.229-0.462s0.232-0.226,0.389-0.296s0.341-0.104,0.553-0.104
				c0.202,0,0.379,0.035,0.532,0.104s0.281,0.168,0.386,0.297s0.183,0.283,0.235,0.463S107.062,46.878,107.062,47.101z
				 M104.971,47.101c0,0.178,0.017,0.339,0.051,0.481s0.086,0.264,0.155,0.363s0.158,0.176,0.266,0.229s0.235,0.079,0.384,0.079
				s0.276-0.026,0.384-0.079s0.196-0.129,0.266-0.229s0.121-0.221,0.153-0.363s0.049-0.303,0.049-0.481
				c0-0.18-0.017-0.34-0.049-0.482s-0.083-0.262-0.152-0.36s-0.157-0.174-0.264-0.227s-0.234-0.079-0.383-0.079
				s-0.276,0.026-0.385,0.079s-0.197,0.128-0.268,0.227s-0.122,0.218-0.156,0.36S104.971,46.921,104.971,47.101z"/>
			<path d="M108.062,48.533h-0.363v-2.855h1.482v0.32h-1.119v1.008h1.045v0.32h-1.045V48.533z"/>
			<path d="M110.027,48.533h-0.363v-2.855h1.482v0.32h-1.119v1.008h1.045v0.32h-1.045V48.533z"/>
		</g>
		<rect x="96.942" y="23.52" fill="#E72A2A" width="5.062" height="1.667"/>
		<rect x="96.888" y="37.145" fill="#050606" width="5.062" height="1.667"/>
		<rect x="113.596" y="37.145" fill="#050606" width="3.122" height="1.667"/>
	</g>
	<g id="copper1_2_">
		<circle id="connector6pad_6_" fill="none" stroke="#FEBF10" stroke-width="1.152" cx="121.094" cy="37.547" r="1.584"/>
		<circle id="connector6pad_5_" fill="none" stroke="#FEBF10" stroke-width="1.152" cx="121.094" cy="30.888" r="1.584"/>
		<circle id="connector6pad_4_" fill="none" stroke="#FEBF10" stroke-width="1.152" cx="121.094" cy="24.185" r="1.584"/>
	</g>
</g>
</svg>
