<?xml version="1.0" encoding="utf-8"?>
<!-- Generator: Adobe Illustrator 18.1.1, SVG Export Plug-In . SVG Version: 6.00 Build 0)  -->
<svg version="1.1" id="Layer_1" xmlns="http://www.w3.org/2000/svg" xmlns:xlink="http://www.w3.org/1999/xlink" x="0px" y="0px"
	 viewBox="0 0 94.3 65.5" enable-background="new 0 0 94.3 65.5" xml:space="preserve">
<rect x="0" fill="#FFFFFF" stroke="#000000" stroke-miterlimit="10" width="94.3" height="65.5"/>
<g>
	<text transform="matrix(0 1 -1 0 10.582 33.9478)" font-family="'DroidSans'" font-size="3">FTDI</text>
</g>
<g>
	<text transform="matrix(1 0 0 1 37.8958 8.9999)" font-family="'DroidSans'" font-size="3">A7</text>
</g>
<g>
	<text transform="matrix(1 0 0 1 44.9955 8.9999)" font-family="'DroidSans'" font-size="3">A6</text>
</g>
<g>
	<text transform="matrix(1 0 0 1 52.095 8.9998)" font-family="'DroidSans'" font-size="3">A5</text>
</g>
<g>
	<text transform="matrix(1 0 0 1 59.1945 8.9999)" font-family="'DroidSans'" font-size="3">A4</text>
</g>
<g>
	<text transform="matrix(1 0 0 1 66.294 8.9997)" font-family="'DroidSans'" font-size="3">A3</text>
</g>
<g>
	<text transform="matrix(1 0 0 1 73.3935 8.9999)" font-family="'DroidSans'" font-size="3">A2</text>
</g>
<g>
	<text transform="matrix(1 0 0 1 80.493 8.9999)" font-family="'DroidSans'" font-size="3">A1</text>
</g>
<g>
	<text transform="matrix(1 0 0 1 87.5925 8.9996)" font-family="'DroidSans'" font-size="3">A0</text>
</g>
<g>
	<text transform="matrix(1 0 0 1 78.5519 19.7499)" font-family="'DroidSans'" font-size="3">ANT</text>
</g>
<g>
	<text transform="matrix(0 1 -1 0 7.8779 14.6874)" font-family="'DroidSans'" font-size="3">DIR</text>
</g>
<g>
	<text transform="matrix(0 1 -1 0 7.8779 46.7384)" font-family="'DroidSans'" font-size="3">GND</text>
</g>
<g>
	<text transform="matrix(0 1 -1 0 84.2949 23.1747)" font-family="'DroidSans'" font-size="3">GND</text>
</g>
<g>
	<text transform="matrix(0 1 -1 0 84.2949 31.1808)" font-family="'DroidSans'" font-size="3">3.3</text>
</g>
<g>
	<text transform="matrix(0 1 -1 0 84.2949 37.84)" font-family="'DroidSans'" font-size="3">AR</text>
</g>
<g>
	<text transform="matrix(1 0 0 1 1.8125 58.8125)" font-family="'DroidSans'" font-size="3">RST</text>
</g>
<g>
	<text transform="matrix(1 0 0 1 10.2292 58.9999)" font-family="'DroidSans'" font-size="3">2</text>
</g>
<g>
	<text transform="matrix(1 0 0 1 17.3958 58.9998)" font-family="'DroidSans'" font-size="3">3</text>
</g>
<g>
	<text transform="matrix(1 0 0 1 24.6711 58.9999)" font-family="'DroidSans'" font-size="3">4</text>
</g>
<g>
	<text transform="matrix(1 0 0 1 31.6086 59.1666)" font-family="'DroidSans'" font-size="3">5</text>
</g>
<g>
	<text transform="matrix(1 0 0 1 38.6458 59.1665)" font-family="'DroidSans'" font-size="3">6</text>
</g>
<g>
	<text transform="matrix(1 0 0 1 16.0006 8.9999)" font-family="'DroidSans'" font-size="3">3.3</text>
</g>
<g>
	<text transform="matrix(1 0 0 1 24.4626 8.9999)" font-family="'DroidSans'" font-size="3">0</text>
</g>
<g>
	<text transform="matrix(1 0 0 1 31.6084 8.9999)" font-family="'DroidSans'" font-size="3">1</text>
</g>
<g>
	<text transform="matrix(1 0 0 1 23.6968 14.6249)" font-family="'DroidSans'" font-size="3">TX</text>
</g>
<g>
	<text transform="matrix(1 0 0 1 30.7962 14.6874)" font-family="'DroidSans'" font-size="3">RX</text>
</g>
<text transform="matrix(1 0 0 1 0.5625 9)" font-family="'DroidSans'" font-size="3">GND</text>
<g>
	<text transform="matrix(1 0 0 1 9.0008 8.9999)" font-family="'DroidSans'" font-size="3">VIN</text>
</g>
<g>
	<text transform="matrix(1 0 0 1 45.9168 59.2498)" font-family="'DroidSans'" font-size="3">7</text>
</g>
<g>
	<text transform="matrix(1 0 0 1 52.875 59.25)" font-family="'DroidSans'" font-size="3">8</text>
</g>
<g>
	<text transform="matrix(1 0 0 1 59.9583 59.2501)" font-family="'DroidSans'" font-size="3">9</text>
</g>
<g>
	<text transform="matrix(1 0 0 1 66.1479 59.2501)" font-family="'DroidSans'" font-size="3">10</text>
</g>
<g>
	<text transform="matrix(1 0 0 1 73.3938 59.25)" font-family="'DroidSans'" font-size="3">11</text>
</g>
<g>
	<text transform="matrix(1 0 0 1 80.4934 59.2498)" font-family="'DroidSans'" font-size="3">12</text>
</g>
<g>
	<text transform="matrix(1 0 0 1 87.5922 59.2498)" font-family="'DroidSans'" font-size="3">13</text>
</g>
<g>
	<g>
		<polygon points="10,24.7 10,21.9 8,23.4 		"/>
	</g>
</g>
<g>
	<g>
		<polygon points="8.1,29 8.1,31.8 10.1,30.4 		"/>
	</g>
</g>
<g>
	<g>
		<polygon points="31,9.7 33.8,9.7 32.4,11.7 		"/>
	</g>
</g>
<g>
	<polygon points="26.7,11.6 23.9,11.6 25.3,9.6 	"/>
</g>
<rect x="-5.4" y="49.9" width="5.4" height="0.7"/>
<rect x="-5.4" y="43.2" width="5.4" height="0.7"/>
<rect x="-5.4" y="36.9" width="5.4" height="0.7"/>
<rect x="-5.4" y="29.8" width="5.4" height="0.7"/>
<rect x="-5.4" y="23.1" width="5.4" height="0.7"/>
<rect x="-5.4" y="16.4" width="5.4" height="0.7"/>
<rect x="94.3" y="26.1" width="5.4" height="0.7"/>
<rect x="94.3" y="32.4" width="5.4" height="0.7"/>
<rect x="94.3" y="39.4" width="5.4" height="0.7"/>
<rect x="88.8" y="-5.4" width="0.7" height="5.4"/>
<rect x="81.7" y="-5.4" width="0.7" height="5.4"/>
<rect x="74.6" y="-5.4" width="0.7" height="5.4"/>
<rect x="67.5" y="-5.4" width="0.7" height="5.4"/>
<rect x="60.4" y="-5.4" width="0.7" height="5.4"/>
<rect x="53.3" y="-5.4" width="0.7" height="5.4"/>
<rect x="46.2" y="-5.4" width="0.7" height="5.4"/>
<rect x="39.1" y="-5.4" width="0.7" height="5.4"/>
<rect x="32" y="-5.4" width="0.7" height="5.4"/>
<rect x="24.9" y="-5.4" width="0.7" height="5.4"/>
<rect x="17.8" y="-5.4" width="0.7" height="5.4"/>
<rect x="10.6" y="-5.4" width="0.7" height="5.4"/>
<rect x="3.6" y="-5.4" width="0.7" height="5.4"/>
<rect x="3.6" y="65.5" width="0.7" height="5.4"/>
<rect x="10.7" y="65.5" width="0.7" height="5.4"/>
<rect x="17.8" y="65.5" width="0.7" height="5.4"/>
<rect x="24.8" y="65.5" width="0.7" height="5.4"/>
<rect x="32" y="65.5" width="0.7" height="5.4"/>
<rect x="39.1" y="65.5" width="0.7" height="5.4"/>
<rect x="46.2" y="65.5" width="0.7" height="5.4"/>
<rect x="53.3" y="65.5" width="0.7" height="5.4"/>
<rect x="60.4" y="65.5" width="0.7" height="5.4"/>
<rect x="67.5" y="65.5" width="0.7" height="5.4"/>
<rect x="74.6" y="65.5" width="0.7" height="5.4"/>
<rect x="81.7" y="65.5" width="0.7" height="5.4"/>
<rect x="88.8" y="65.5" width="0.7" height="5.4"/>
</svg>
