<?xml version="1.0" encoding="utf-8"?>
<!-- Generator: Adobe Illustrator 18.1.1, SVG Export Plug-In . SVG Version: 6.00 Build 0)  -->
<svg version="1.1" id="Layer_1" xmlns="http://www.w3.org/2000/svg" xmlns:xlink="http://www.w3.org/1999/xlink" x="0px" y="0px"
	 viewBox="0 0 94.3 65.5" enable-background="new 0 0 94.3 65.5" xml:space="preserve">
<g id="breadboard">
	<path fill="#ED2426" d="M0,0h94.3v65.5H0V0z M88.2,26.1c0,0.6,0.4,1,1,1c0.6,0,1-0.4,1-1c0-0.6-0.4-1-1-1
		C88.6,25.1,88.2,25.5,88.2,26.1z M88.2,32.8c0,0.6,0.4,1,1,1c0.6,0,1-0.4,1-1c0-0.6-0.4-1-1-1C88.6,31.8,88.2,32.2,88.2,32.8z
		 M88.2,39.4c0,0.6,0.4,1,1,1c0.6,0,1-0.4,1-1c0-0.6-0.4-1-1-1C88.6,38.4,88.2,38.9,88.2,39.4z M88.2,61.7c0,0.6,0.4,1,1,1
		c0.6,0,1-0.4,1-1c0-0.6-0.4-1-1-1C88.6,60.7,88.2,61.2,88.2,61.7z M81.1,61.7c0,0.6,0.4,1,1,1c0.6,0,1-0.4,1-1c0-0.6-0.4-1-1-1
		C81.5,60.7,81.1,61.2,81.1,61.7z M74,61.7c0,0.6,0.4,1,1,1c0.6,0,1-0.4,1-1c0-0.6-0.4-1-1-1C74.4,60.7,74,61.2,74,61.7z M66.9,61.7
		c0,0.6,0.4,1,1,1c0.6,0,1-0.4,1-1c0-0.6-0.4-1-1-1C67.3,60.7,66.9,61.2,66.9,61.7z M59.8,61.7c0,0.6,0.4,1,1,1c0.6,0,1-0.4,1-1
		c0-0.6-0.4-1-1-1C60.2,60.7,59.8,61.2,59.8,61.7z M52.7,61.7c0,0.6,0.4,1,1,1c0.6,0,1-0.4,1-1c0-0.6-0.4-1-1-1
		C53.1,60.7,52.7,61.2,52.7,61.7z M45.6,61.7c0,0.6,0.4,1,1,1c0.6,0,1-0.4,1-1c0-0.6-0.4-1-1-1C46,60.7,45.6,61.2,45.6,61.7z
		 M38.5,61.7c0,0.6,0.4,1,1,1c0.6,0,1-0.4,1-1c0-0.6-0.4-1-1-1C38.9,60.7,38.5,61.2,38.5,61.7z M31.4,61.7c0,0.6,0.4,1,1,1
		c0.6,0,1-0.4,1-1c0-0.6-0.4-1-1-1C31.8,60.7,31.4,61.2,31.4,61.7z M24.3,61.7c0,0.6,0.4,1,1,1c0.6,0,1-0.4,1-1c0-0.6-0.4-1-1-1
		C24.7,60.7,24.3,61.2,24.3,61.7z M17.2,61.7c0,0.6,0.4,1,1,1c0.6,0,1-0.4,1-1c0-0.6-0.4-1-1-1C17.6,60.7,17.2,61.2,17.2,61.7z
		 M10.1,61.7c0,0.6,0.4,1,1,1c0.6,0,1-0.4,1-1c0-0.6-0.4-1-1-1C10.5,60.7,10.1,61.2,10.1,61.7z M3,61.7c0,0.6,0.4,1,1,1
		c0.6,0,1-0.4,1-1c0-0.6-0.4-1-1-1C3.4,60.7,3,61.2,3,61.7z M3,50.2c0,0.6,0.4,1,1,1c0.6,0,1-0.4,1-1c0-0.6-0.4-1-1-1
		C3.4,49.2,3,49.7,3,50.2z M3,43.6c0,0.6,0.4,1,1,1c0.6,0,1-0.4,1-1c0-0.6-0.4-1-1-1C3.4,42.6,3,43,3,43.6z M3,36.9c0,0.6,0.4,1,1,1
		c0.6,0,1-0.4,1-1c0-0.6-0.4-1-1-1C3.4,35.9,3,36.3,3,36.9z M3,30.2c0,0.6,0.4,1,1,1c0.6,0,1-0.4,1-1c0-0.6-0.4-1-1-1
		C3.4,29.2,3,29.6,3,30.2z M3,16.8c0,0.6,0.4,1,1,1c0.6,0,1-0.4,1-1c0-0.6-0.4-1-1-1C3.4,15.8,3,16.2,3,16.8z M3,23.5
		c0,0.6,0.4,1,1,1c0.6,0,1-0.4,1-1c0-0.6-0.4-1-1-1C3.4,22.5,3,22.9,3,23.5z M80.1,14.6c0,0.6,0.4,1,1,1c0.6,0,1-0.4,1-1
		c0-0.6-0.4-1-1-1C80.5,13.6,80.1,14.1,80.1,14.6z M88.2,3.7c0,0.6,0.4,1,1,1c0.6,0,1-0.4,1-1c0-0.6-0.4-1-1-1
		C88.6,2.7,88.2,3.2,88.2,3.7z M81.1,3.7c0,0.6,0.4,1,1,1c0.6,0,1-0.4,1-1c0-0.6-0.4-1-1-1C81.5,2.7,81.1,3.2,81.1,3.7z M74,3.7
		c0,0.6,0.4,1,1,1c0.6,0,1-0.4,1-1c0-0.6-0.4-1-1-1C74.4,2.7,74,3.2,74,3.7z M66.9,3.7c0,0.6,0.4,1,1,1c0.6,0,1-0.4,1-1
		c0-0.6-0.4-1-1-1C67.3,2.7,66.9,3.2,66.9,3.7z M59.8,3.7c0,0.6,0.4,1,1,1c0.6,0,1-0.4,1-1c0-0.6-0.4-1-1-1
		C60.2,2.7,59.8,3.2,59.8,3.7z M52.7,3.7c0,0.6,0.4,1,1,1c0.6,0,1-0.4,1-1c0-0.6-0.4-1-1-1C53.1,2.7,52.7,3.2,52.7,3.7z M45.6,3.7
		c0,0.6,0.4,1,1,1c0.6,0,1-0.4,1-1c0-0.6-0.4-1-1-1C46,2.7,45.6,3.2,45.6,3.7z M38.5,3.7c0,0.6,0.4,1,1,1c0.6,0,1-0.4,1-1
		c0-0.6-0.4-1-1-1C38.9,2.7,38.5,3.2,38.5,3.7z M31.4,3.7c0,0.6,0.4,1,1,1c0.6,0,1-0.4,1-1c0-0.6-0.4-1-1-1
		C31.8,2.7,31.4,3.2,31.4,3.7z M24.3,3.7c0,0.6,0.4,1,1,1c0.6,0,1-0.4,1-1c0-0.6-0.4-1-1-1C24.7,2.7,24.3,3.2,24.3,3.7z M17.2,3.7
		c0,0.6,0.4,1,1,1c0.6,0,1-0.4,1-1c0-0.6-0.4-1-1-1C17.6,2.7,17.2,3.2,17.2,3.7z M10.1,3.7c0,0.6,0.4,1,1,1c0.6,0,1-0.4,1-1
		c0-0.6-0.4-1-1-1C10.5,2.7,10.1,3.2,10.1,3.7z M3,3.7c0,0.6,0.4,1,1,1c0.6,0,1-0.4,1-1c0-0.6-0.4-1-1-1C3.4,2.7,3,3.2,3,3.7z"/>
	<g id="chips">
		<rect x="42.8" y="23.2" fill="#0B0B0B" width="20.3" height="18.4"/>
		<g>
			<rect x="59.9" y="20.7" fill="#C8E6ED" width="1.5" height="3.7"/>
			<rect x="57.7" y="20.7" fill="#C8E6ED" width="1.5" height="3.7"/>
			<rect x="55.5" y="20.7" fill="#C8E6ED" width="1.5" height="3.7"/>
			<rect x="53.3" y="20.7" fill="#C8E6ED" width="1.5" height="3.7"/>
			<rect x="51.1" y="20.7" fill="#C8E6ED" width="1.5" height="3.7"/>
			<rect x="48.9" y="20.7" fill="#C8E6ED" width="1.5" height="3.7"/>
			<rect x="46.7" y="20.7" fill="#C8E6ED" width="1.5" height="3.7"/>
			<rect x="44.5" y="20.7" fill="#C8E6ED" width="1.5" height="3.7"/>
		</g>
		<g>
			<rect x="59.9" y="40.3" fill="#C8E6ED" width="1.5" height="3.7"/>
			<rect x="57.7" y="40.3" fill="#C8E6ED" width="1.5" height="3.7"/>
			<rect x="55.5" y="40.3" fill="#C8E6ED" width="1.5" height="3.7"/>
			<rect x="53.3" y="40.3" fill="#C8E6ED" width="1.5" height="3.7"/>
			<rect x="51.1" y="40.3" fill="#C8E6ED" width="1.5" height="3.7"/>
			<rect x="48.9" y="40.3" fill="#C8E6ED" width="1.5" height="3.7"/>
			<rect x="46.7" y="40.3" fill="#C8E6ED" width="1.5" height="3.7"/>
			<rect x="44.5" y="40.3" fill="#C8E6ED" width="1.5" height="3.7"/>
		</g>
		<g>
			<rect x="40.2" y="39.4" fill="#C8E6ED" width="3.7" height="1.5"/>
			<rect x="40.2" y="37.2" fill="#C8E6ED" width="3.7" height="1.5"/>
			<rect x="40.2" y="34.9" fill="#C8E6ED" width="3.7" height="1.5"/>
			<rect x="40.2" y="32.7" fill="#C8E6ED" width="3.7" height="1.5"/>
			<rect x="40.2" y="30.5" fill="#C8E6ED" width="3.7" height="1.5"/>
			<rect x="40.2" y="28.3" fill="#C8E6ED" width="3.7" height="1.5"/>
			<rect x="40.2" y="26.1" fill="#C8E6ED" width="3.7" height="1.5"/>
			<rect x="40.2" y="23.9" fill="#C8E6ED" width="3.7" height="1.5"/>
		</g>
		<g>
			<rect x="61.9" y="39.4" fill="#C8E6ED" width="3.7" height="1.5"/>
			<rect x="61.9" y="37.1" fill="#C8E6ED" width="3.7" height="1.5"/>
			<rect x="61.9" y="34.9" fill="#C8E6ED" width="3.7" height="1.5"/>
			<rect x="61.9" y="32.7" fill="#C8E6ED" width="3.7" height="1.5"/>
			<rect x="61.9" y="30.5" fill="#C8E6ED" width="3.7" height="1.5"/>
			<rect x="61.9" y="28.3" fill="#C8E6ED" width="3.7" height="1.5"/>
			<rect x="61.9" y="26.1" fill="#C8E6ED" width="3.7" height="1.5"/>
			<rect x="61.9" y="23.9" fill="#C8E6ED" width="3.7" height="1.5"/>
		</g>
		<text transform="matrix(1 0 0 1 42.7636 49.452)" fill="#E6E6E6" font-family="'DroidSans'" font-size="5">MOTIENO</text>
		<rect x="20.6" y="22.2" fill="#0B0B0B" width="8.1" height="4.5"/>
		<rect x="26.6" y="26.1" fill="#C8E6ED" width="1.5" height="5"/>
		<rect x="21.3" y="26.1" fill="#C8E6ED" width="1.5" height="5"/>
		<rect x="23.4" y="16.7" fill="#C8E6ED" width="2.5" height="5.9"/>
		<rect x="18.4" y="40.1" fill="#C8E6ED" width="1.5" height="5"/>
		<rect x="21.6" y="40.1" fill="#C8E6ED" width="1.5" height="5"/>
		<rect x="24.8" y="40.1" fill="#C8E6ED" width="1.5" height="5"/>
		<rect x="71.5" y="34.1" fill="#C8E6ED" width="1.5" height="5"/>
		<rect x="74.6" y="34.1" fill="#C8E6ED" width="1.5" height="5"/>
		<rect x="77.8" y="34.1" fill="#C8E6ED" width="1.5" height="5"/>
		<rect x="71.5" y="25" fill="#C8E6ED" width="1.5" height="5"/>
		<rect x="74.6" y="25" fill="#C8E6ED" width="1.5" height="5"/>
		<rect x="77.8" y="25" fill="#C8E6ED" width="1.5" height="5"/>
		<circle id="connector6pad_31_" fill="none" stroke="#FEBF10" stroke-width="1.152" cx="81.1" cy="14.6" r="1.6"/>
		<rect x="7.1" y="14.6" fill="#C8E5EC" width="0.2" height="37.9"/>
	</g>
	<g id="labels">
		<text transform="matrix(0 1 -1 0 10.582 33.9478)" fill="#FFFFFF" font-family="'DroidSans'" font-size="5">FTDI</text>
		<text transform="matrix(1 0 0 1 37.8958 8.9999)" fill="#FFFFFF" font-family="'DroidSans'" font-size="3">A7</text>
		<text transform="matrix(1 0 0 1 44.9955 8.9999)" fill="#FFFFFF" font-family="'DroidSans'" font-size="3">A6</text>
		<text transform="matrix(1 0 0 1 52.095 8.9998)" fill="#FFFFFF" font-family="'DroidSans'" font-size="3">A5</text>
		<text transform="matrix(1 0 0 1 59.1945 8.9999)" fill="#FFFFFF" font-family="'DroidSans'" font-size="3">A4</text>
		<text transform="matrix(1 0 0 1 66.294 8.9997)" fill="#FFFFFF" font-family="'DroidSans'" font-size="3">A3</text>
		<text transform="matrix(1 0 0 1 73.3935 8.9999)" fill="#FFFFFF" font-family="'DroidSans'" font-size="3">A2</text>
		<text transform="matrix(1 0 0 1 80.493 8.9999)" fill="#FFFFFF" font-family="'DroidSans'" font-size="3">A1</text>
		<text transform="matrix(1 0 0 1 87.5925 8.9996)" fill="#FFFFFF" font-family="'DroidSans'" font-size="3">A0</text>
		<text transform="matrix(1 0 0 1 78.5519 19.7499)" fill="#FFFFFF" font-family="'DroidSans'" font-size="3">ANT</text>
		<text transform="matrix(0 1 -1 0 7.8779 14.6874)" fill="#FFFFFF" font-family="'DroidSans'" font-size="3">DIR</text>
		<text transform="matrix(0 1 -1 0 7.8779 46.7384)" fill="#FFFFFF" font-family="'DroidSans'" font-size="3">GND</text>
		<text transform="matrix(0 1 -1 0 84.2949 23.1747)" fill="#FFFFFF" font-family="'DroidSans'" font-size="3">GND</text>
		<text transform="matrix(0 1 -1 0 84.2949 31.1808)" fill="#FFFFFF" font-family="'DroidSans'" font-size="3">3.3</text>
		<text transform="matrix(0 1 -1 0 84.2949 37.84)" fill="#FFFFFF" font-family="'DroidSans'" font-size="3">AR</text>
		<text transform="matrix(1 0 0 1 1.8125 58.8125)" fill="#FFFFFF" font-family="'DroidSans'" font-size="3">RST</text>
		<text transform="matrix(1 0 0 1 10.2292 58.9999)" fill="#FFFFFF" font-family="'DroidSans'" font-size="3">2</text>
		<text transform="matrix(1 0 0 1 17.3958 58.9998)" fill="#FFFFFF" font-family="'DroidSans'" font-size="3">3</text>
		<text transform="matrix(1 0 0 1 24.6711 58.9999)" fill="#FFFFFF" font-family="'DroidSans'" font-size="3">4</text>
		<text transform="matrix(1 0 0 1 31.6086 59.1666)" fill="#FFFFFF" font-family="'DroidSans'" font-size="3">5</text>
		<text transform="matrix(1 0 0 1 38.6458 59.1665)" fill="#FFFFFF" font-family="'DroidSans'" font-size="3">6</text>
		<text transform="matrix(1 0 0 1 16.0006 8.9999)" fill="#FFFFFF" font-family="'DroidSans'" font-size="3">3.3</text>
		<text transform="matrix(1 0 0 1 24.6709 8.9999)" fill="#FFFFFF" font-family="'DroidSans'" font-size="3">0</text>
		<text transform="matrix(1 0 0 1 31.6084 8.9999)" fill="#FFFFFF" font-family="'DroidSans'" font-size="3">1</text>
		<text transform="matrix(1 0 0 1 23.6968 14.6249)" fill="#FFFFFF" font-family="'DroidSans'" font-size="3">TX</text>
		<text transform="matrix(1 0 0 1 30.7962 14.6874)" fill="#FFFFFF" font-family="'DroidSans'" font-size="3">RX</text>
		<text transform="matrix(1 0 0 1 0.5625 9)" fill="#FFFFFF" font-family="'DroidSans'" font-size="3">GND</text>
		<text transform="matrix(1 0 0 1 9.0008 8.9999)" fill="#FFFFFF" font-family="'DroidSans'" font-size="3">VIN</text>
		<text transform="matrix(1 0 0 1 45.9168 59.2498)" fill="#FFFFFF" font-family="'DroidSans'" font-size="3">7</text>
		<text transform="matrix(1 0 0 1 52.875 59.25)" fill="#FFFFFF" font-family="'DroidSans'" font-size="3">8</text>
		<text transform="matrix(1 0 0 1 59.9583 59.2501)" fill="#FFFFFF" font-family="'DroidSans'" font-size="3">9</text>
		<text transform="matrix(1 0 0 1 66.1479 59.2501)" fill="#FFFFFF" font-family="'DroidSans'" font-size="3">10</text>
		<text transform="matrix(1 0 0 1 73.3938 59.25)" fill="#FFFFFF" font-family="'DroidSans'" font-size="3">11</text>
		<text transform="matrix(1 0 0 1 80.4934 59.2498)" fill="#FFFFFF" font-family="'DroidSans'" font-size="3">12</text>
		<text transform="matrix(1 0 0 1 87.5922 59.2498)" fill="#FFFFFF" font-family="'DroidSans'" font-size="3">13</text>
		<g>
			<polygon fill="#FFFFFF" points="10,24.7 10,21.9 8,23.4 			"/>
		</g>
		<g>
			<polygon fill="#FFFFFF" points="8.1,29 8.1,31.8 10.1,30.4 			"/>
		</g>
		<g>
			<polygon fill="#FFFFFF" points="31,9.7 33.8,9.7 32.4,11.7 			"/>
		</g>
		<g>
			<polygon fill="#FFFFFF" points="26.7,11.6 23.9,11.6 25.3,9.6 			"/>
		</g>
	</g>
	<g id="copper4">
		<circle id="connector6pad_41_" fill="none" stroke="#FEBF10" stroke-width="1.152" cx="89.2" cy="39.4" r="1.6"/>
		<circle id="connector6pad_40_" fill="none" stroke="#FEBF10" stroke-width="1.152" cx="89.2" cy="32.8" r="1.6"/>
		<circle id="connector6pad_39_" fill="none" stroke="#FEBF10" stroke-width="1.152" cx="89.2" cy="26.1" r="1.6"/>
	</g>
	<g id="copper3">
		<circle id="connector6pad_65_" fill="none" stroke="#FEBF10" stroke-width="1.152" cx="4" cy="30.2" r="1.6"/>
		<circle id="connector6pad_64_" fill="none" stroke="#FEBF10" stroke-width="1.152" cx="4" cy="23.5" r="1.6"/>
		<circle id="connector1pad_2_" fill="none" stroke="#FEBF10" stroke-width="1.152" cx="4" cy="16.8" r="1.6"/>
		<g>
			<circle id="connector6pad_62_" fill="none" stroke="#FEBF10" stroke-width="1.152" cx="4" cy="50.2" r="1.6"/>
			<circle id="connector6pad_61_" fill="none" stroke="#FEBF10" stroke-width="1.152" cx="4" cy="43.6" r="1.6"/>
			<circle id="connector6pad_60_" fill="none" stroke="#FEBF10" stroke-width="1.152" cx="4" cy="36.9" r="1.6"/>
		</g>
	</g>
	<g id="copper2">
		<circle id="connector13pad_1_" fill="none" stroke="#FEBF10" stroke-width="1.152" cx="89.2" cy="61.7" r="1.6"/>
		<circle id="connector12pad_1_" fill="none" stroke="#FEBF10" stroke-width="1.152" cx="82.1" cy="61.7" r="1.6"/>
		<circle id="connector11pad_1_" fill="none" stroke="#FEBF10" stroke-width="1.152" cx="75" cy="61.7" r="1.6"/>
		<circle id="connector10pad_1_" fill="none" stroke="#FEBF10" stroke-width="1.152" cx="67.9" cy="61.7" r="1.6"/>
		<circle id="connector9pad_1_" fill="none" stroke="#FEBF10" stroke-width="1.152" cx="60.8" cy="61.7" r="1.6"/>
		<circle id="connector8pad_1_" fill="none" stroke="#FEBF10" stroke-width="1.152" cx="53.7" cy="61.7" r="1.6"/>
		<circle id="connector7pad_1_" fill="none" stroke="#FEBF10" stroke-width="1.152" cx="46.6" cy="61.7" r="1.6"/>
		<circle id="connector6pad_1_" fill="none" stroke="#FEBF10" stroke-width="1.152" cx="39.5" cy="61.7" r="1.6"/>
		<circle id="connector5pad_1_" fill="none" stroke="#FEBF10" stroke-width="1.152" cx="32.4" cy="61.7" r="1.6"/>
		<circle id="connector4pad_1_" fill="none" stroke="#FEBF10" stroke-width="1.152" cx="25.3" cy="61.7" r="1.6"/>
		<circle id="connector3pad_1_" fill="none" stroke="#FEBF10" stroke-width="1.152" cx="18.2" cy="61.7" r="1.6"/>
		<circle id="connector2pad_1_" fill="none" stroke="#FEBF10" stroke-width="1.152" cx="11.1" cy="61.7" r="1.6"/>
		<circle id="connector1pad_1_" fill="none" stroke="#FEBF10" stroke-width="1.152" cx="4" cy="61.7" r="1.6"/>
	</g>
	<g id="copper1">
		<circle id="connector13pad" fill="none" stroke="#FEBF10" stroke-width="1.152" cx="89.2" cy="3.7" r="1.6"/>
		<circle id="connector12pad" fill="none" stroke="#FEBF10" stroke-width="1.152" cx="82.1" cy="3.7" r="1.6"/>
		<circle id="connector11pad" fill="none" stroke="#FEBF10" stroke-width="1.152" cx="75" cy="3.7" r="1.6"/>
		<circle id="connector10pad" fill="none" stroke="#FEBF10" stroke-width="1.152" cx="67.9" cy="3.7" r="1.6"/>
		<circle id="connector9pad" fill="none" stroke="#FEBF10" stroke-width="1.152" cx="60.8" cy="3.7" r="1.6"/>
		<circle id="connector8pad" fill="none" stroke="#FEBF10" stroke-width="1.152" cx="53.7" cy="3.7" r="1.6"/>
		<circle id="connector7pad" fill="none" stroke="#FEBF10" stroke-width="1.152" cx="46.6" cy="3.7" r="1.6"/>
		<circle id="connector6pad_15_" fill="none" stroke="#FEBF10" stroke-width="1.152" cx="39.5" cy="3.7" r="1.6"/>
		<circle id="connector5pad" fill="none" stroke="#FEBF10" stroke-width="1.152" cx="32.4" cy="3.7" r="1.6"/>
		<circle id="connector4pad" fill="none" stroke="#FEBF10" stroke-width="1.152" cx="25.3" cy="3.7" r="1.6"/>
		<circle id="connector3pad" fill="none" stroke="#FEBF10" stroke-width="1.152" cx="18.2" cy="3.7" r="1.6"/>
		<circle id="connector2pad" fill="none" stroke="#FEBF10" stroke-width="1.152" cx="11.1" cy="3.7" r="1.6"/>
		<circle id="connector1pad" fill="none" stroke="#FEBF10" stroke-width="1.152" cx="4" cy="3.7" r="1.6"/>
	</g>
</g>
</svg>
